<mxfile host="app.diagrams.net" modified="2023-12-08T02:59:45.909Z" agent="Mozilla/5.0 (Windows NT 10.0; Win64; x64) AppleWebKit/537.36 (KHTML, like Gecko) Chrome/120.0.0.0 Safari/537.36 Edg/120.0.0.0" version="22.1.7" etag="Yy33ruBaCjcl49pT7EmY" type="github">
  <diagram name="第 1 页" id="n1N5VuUuAxFkt2AaiHaO">
    <mxGraphModel>
      <root>
        <mxCell id="0" />
        <mxCell id="1" parent="0" />
      </root>
    </mxGraphModel>
  </diagram>
</mxfile>
